<svg width="20" height="20" viewBox="0 0 20 20" fill="none" xmlns="http://www.w3.org/2000/svg">
<g id="random-svgrepo-com 1" clip-path="url(#clip0_11_2)">
<path id="Vector" d="M0.5 14.75C0.5 15.0793 0.614 15.3643 0.842 15.605C1.07 15.8457 1.355 15.9597 1.697 15.947H2.875C3.68567 15.947 4.45833 15.7887 5.193 15.472C5.92767 15.1553 6.55467 14.731 7.074 14.199C7.59333 13.667 8.01767 13.0337 8.347 12.299C8.67633 11.5643 8.83467 10.798 8.822 10C8.822 9.02466 9.164 8.18866 9.848 7.492C10.532 6.79533 11.3743 6.447 12.375 6.447H14.75V7.625C14.75 7.891 14.826 8.119 14.978 8.309C15.13 8.499 15.301 8.63833 15.491 8.727C15.681 8.81566 15.9027 8.841 16.156 8.803C16.4093 8.765 16.6183 8.65733 16.783 8.48L19.158 6.105C19.3987 5.85166 19.5127 5.56666 19.5 5.25C19.4873 4.93333 19.3733 4.65466 19.158 4.414L16.783 2.039C16.593 1.86166 16.3777 1.754 16.137 1.716C15.8963 1.678 15.6747 1.70333 15.472 1.792C15.2693 1.88066 15.0983 2.02 14.959 2.21C14.8197 2.4 14.75 2.62166 14.75 2.875V4.072H12.375C11.577 4.072 10.8107 4.23033 10.076 4.547C9.34133 4.86366 8.708 5.28167 8.176 5.801C7.644 6.32033 7.21967 6.95366 6.903 7.701C6.58633 8.44833 6.43433 9.21466 6.447 10C6.447 10.988 6.09867 11.8303 5.402 12.527C4.70533 13.2237 3.863 13.572 2.875 13.572H1.697C1.36767 13.572 1.08267 13.686 0.842 13.914C0.601333 14.142 0.487333 14.4207 0.5 14.75ZM0.5 5.269C0.5 5.59833 0.614 5.877 0.842 6.105C1.07 6.333 1.355 6.447 1.697 6.447H2.875C3.43233 6.447 3.94533 6.56733 4.414 6.808C4.88267 7.04866 5.29433 7.378 5.649 7.796C5.915 6.98533 6.30767 6.257 6.827 5.611C5.67433 4.585 4.357 4.072 2.875 4.072H1.697C1.36767 4.072 1.08267 4.19233 0.842 4.433C0.601333 4.67366 0.487333 4.95233 0.5 5.269ZM8.442 14.427C9.56933 15.4403 10.8803 15.947 12.375 15.947H14.75V17.144C14.75 17.3973 14.826 17.6253 14.978 17.828C15.13 18.0307 15.301 18.17 15.491 18.246C15.681 18.322 15.9027 18.341 16.156 18.303C16.4093 18.265 16.6183 18.1573 16.783 17.98L19.158 15.605C19.3987 15.3643 19.5127 15.0793 19.5 14.75C19.4873 14.4207 19.3733 14.1483 19.158 13.933L16.783 11.558C16.593 11.368 16.3777 11.254 16.137 11.216C15.8963 11.178 15.6747 11.2033 15.472 11.292C15.2693 11.3807 15.0983 11.5263 14.959 11.729C14.8197 11.9317 14.75 12.1533 14.75 12.394V13.572H12.375C11.8303 13.572 11.3173 13.458 10.836 13.23C10.3547 13.002 9.94933 12.6727 9.62 12.242C9.34133 13.0527 8.94867 13.781 8.442 14.427Z" fill="white"/>
</g>
<defs>
<clipPath id="clip0_11_2">
<rect width="19" height="19" fill="white" transform="translate(0.5 0.5)"/>
</clipPath>
</defs>
</svg>
